<svg width="74" height="74" viewBox="0 0 74 74" fill="none" xmlns="http://www.w3.org/2000/svg">
<path d="M0 10C0 4.47715 4.47715 0 10 0H64C69.5229 0 74 4.47715 74 10V64C74 69.5229 69.5229 74 64 74H10C4.47715 74 0 69.5229 0 64V10Z" fill="#32323C"/>
<mask id="mask0" style="mask-type:alpha" maskUnits="userSpaceOnUse" x="22" y="22" width="30" height="30">
<path fill-rule="evenodd" clip-rule="evenodd" d="M37 50.125C44.2487 50.125 50.125 44.2487 50.125 37C50.125 29.7513 44.2487 23.875 37 23.875C29.7513 23.875 23.875 29.7513 23.875 37C23.875 44.2487 29.7513 50.125 37 50.125ZM37 52C45.2843 52 52 45.2843 52 37C52 28.7157 45.2843 22 37 22C28.7157 22 22 28.7157 22 37C22 45.2843 28.7157 52 37 52Z" fill="black"/>
<path fill-rule="evenodd" clip-rule="evenodd" d="M30.034 39.9385C30.4822 39.6792 31.0557 39.8324 31.3149 40.2806C32.451 42.2446 34.5722 43.5625 37.0001 43.5625C39.4279 43.5625 41.5491 42.2446 42.6852 40.2806C42.9444 39.8324 43.5179 39.6792 43.9661 39.9385C44.4143 40.1978 44.5674 40.7712 44.3082 41.2194C42.8507 43.739 40.1243 45.4375 37.0001 45.4375C33.8758 45.4375 31.1494 43.739 29.6919 41.2194C29.4327 40.7712 29.5858 40.1978 30.034 39.9385Z" fill="black"/>
<path d="M35.125 34.1875C35.125 35.7408 34.2855 37 33.25 37C32.2145 37 31.375 35.7408 31.375 34.1875C31.375 32.6342 32.2145 31.375 33.25 31.375C34.2855 31.375 35.125 32.6342 35.125 34.1875Z" fill="black"/>
<path d="M42.625 34.1875C42.625 35.7408 41.7855 37 40.75 37C39.7145 37 38.875 35.7408 38.875 34.1875C38.875 32.6342 39.7145 31.375 40.75 31.375C41.7855 31.375 42.625 32.6342 42.625 34.1875Z" fill="black"/>
</mask>
<g mask="url(#mask0)">
<rect x="22" y="22" width="30" height="30" fill="white"/>
</g>
</svg>
