<svg width="190" height="50" viewBox="0 0 190 50" fill="none" xmlns="http://www.w3.org/2000/svg">
<path d="M0 10C0 4.47715 4.47715 0 10 0H40C45.5228 0 50 4.47715 50 10V40C50 45.5228 45.5228 50 40 50H10C4.47715 50 0 45.5228 0 40V10Z" fill="white"/>
<path fill-rule="evenodd" clip-rule="evenodd" d="M28.9584 35.7174C28.9584 36.4595 29.9208 36.7509 30.3324 36.1334L38.7366 23.5272C39.0688 23.0288 38.7115 22.3612 38.1125 22.3612H31.5972V14.2827C31.5972 13.5406 30.6348 13.2492 30.2232 13.8667L21.819 26.4729C21.4868 26.9713 21.8441 27.6389 22.4431 27.6389H28.9584V35.7174Z" fill="#16192C"/>
<path opacity="0.3" fill-rule="evenodd" clip-rule="evenodd" d="M13.125 17.2639C13.125 16.4355 13.7966 15.7639 14.625 15.7639H22.1806C23.009 15.7639 23.6806 16.4355 23.6806 17.2639V18.2223C23.6806 19.0507 23.009 19.7222 22.1806 19.7222H14.625C13.7966 19.7222 13.125 19.0507 13.125 18.2223V17.2639ZM13.125 33.0972C13.125 32.2688 13.7966 31.5972 14.625 31.5972H22.1806C23.009 31.5972 23.6806 32.2688 23.6806 33.0972V34.0556C23.6806 34.884 23.009 35.5556 22.1806 35.5556H14.625C13.7966 35.5556 13.125 34.884 13.125 34.0556V33.0972ZM11.9861 23.6806C11.1577 23.6806 10.4861 24.3522 10.4861 25.1806V26.1389C10.4861 26.9673 11.1577 27.6389 11.9861 27.6389H18.2223C19.0507 27.6389 19.7223 26.9673 19.7223 26.1389V25.1806C19.7223 24.3522 19.0507 23.6806 18.2223 23.6806H11.9861Z" fill="#16192C"/>
<path d="M75.5214 37.5C80.1652 37.5 83.1248 34.7449 83.4376 30.8229H79.275C78.902 32.808 77.4703 33.9509 75.5574 33.9509C72.8385 33.9509 71.082 31.6771 71.082 27.8994C71.082 24.1699 72.8746 21.9321 75.5574 21.9321C77.6508 21.9321 78.9381 23.2796 79.275 25.0602H83.4376C83.1369 21.0539 80.0088 18.4192 75.4973 18.4192C70.0834 18.4192 66.6667 22.3292 66.6667 27.9716C66.6667 33.5659 69.9992 37.5 75.5214 37.5Z" fill="white"/>
<path d="M89.675 12.5H85.3198V37.1391H89.675V12.5Z" fill="white"/>
<path d="M100.64 37.5C104.947 37.5 107.907 35.3946 108.677 32.1824L104.611 31.7252C104.021 33.2892 102.577 34.1073 100.701 34.1073C97.8854 34.1073 96.0206 32.2546 95.9845 29.0905H108.857V27.7551C108.857 21.2705 104.96 18.4192 100.412 18.4192C95.1183 18.4192 91.6655 22.3051 91.6655 28.0077C91.6655 33.8065 95.0702 37.5 100.64 37.5ZM95.9966 26.155C96.1289 23.7969 97.8734 21.8118 100.472 21.8118C102.974 21.8118 104.659 23.6405 104.683 26.155H95.9966Z" fill="white"/>
<path d="M126.825 18.6598H122.193L117.934 32.3869H117.742L113.495 18.6598H108.851L115.432 37.1391H120.244L126.825 18.6598Z" fill="white"/>
<path d="M135.697 37.5C140.004 37.5 142.964 35.3946 143.734 32.1824L139.667 31.7252C139.078 33.2892 137.634 34.1073 135.757 34.1073C132.942 34.1073 131.077 32.2546 131.041 29.0905H143.914V27.7551C143.914 21.2705 140.016 18.4192 135.468 18.4192C130.175 18.4192 126.722 22.3051 126.722 28.0077C126.722 33.8065 130.127 37.5 135.697 37.5ZM131.053 26.155C131.185 23.7969 132.93 21.8118 135.529 21.8118C138.031 21.8118 139.715 23.6405 139.739 26.155H131.053Z" fill="white"/>
<path d="M145.905 37.1391H150.26V26.2753C150.26 23.9293 152.028 22.269 154.422 22.269C155.156 22.269 156.071 22.4013 156.444 22.5217V18.5154C156.047 18.4432 155.361 18.3951 154.88 18.3951C152.762 18.3951 150.994 19.5982 150.32 21.7397H150.127V18.6598H145.905V37.1391Z" fill="white"/>
</svg>
