<svg width="32" height="32" viewBox="0 0 32 32" fill="none" xmlns="http://www.w3.org/2000/svg">
<g clip-path="url(#clip0)">
<path d="M16.0002 3.79431C9.26029 3.79431 3.79663 9.25797 3.79663 15.9979C3.79663 22.7378 9.26029 28.2015 16.0002 28.2015C22.7399 28.2015 28.2038 22.7378 28.2038 15.9979C28.1959 9.26122 22.7369 3.8019 16.0002 3.79431ZM16.0002 27.0921C9.87296 27.0921 4.90605 22.1249 4.90605 15.9979C4.90605 9.87064 9.87296 4.90373 16.0002 4.90373C22.1272 4.90373 27.0944 9.87064 27.0944 15.9979C27.0873 22.1222 22.1242 27.085 16.0002 27.0921Z" fill="#9B39FC" fill-opacity="0.5"/>
<path d="M10.8357 0.173706C10.5245 0.275276 10.2176 0.386326 9.91479 0.506314L10.3203 1.53935C10.6033 1.4283 10.8896 1.32565 11.1794 1.23085L10.8357 0.173706Z" fill="#9B39FC" fill-opacity="0.5"/>
<path d="M9.57305 1.85276L9.11395 0.843018C4.67331 2.85736 1.34127 6.71973 0 11.4077L1.06608 11.7126C2.31878 7.33754 5.42872 3.73275 9.57305 1.85276Z" fill="#9B39FC" fill-opacity="0.5"/>
<path d="M20.8206 30.7668L21.1643 31.8207C21.4755 31.7191 21.7824 31.6081 22.0852 31.4878L21.6797 30.4551C21.3969 30.5688 21.1104 30.6728 20.8206 30.7668Z" fill="#9B39FC" fill-opacity="0.5"/>
<path d="M22.427 30.1429L22.8861 31.1523C27.3265 29.1385 30.6585 25.2764 32 20.589L30.934 20.2841C29.681 24.6586 26.5711 28.2629 22.427 30.1429Z" fill="#9B39FC" fill-opacity="0.5"/>
<path d="M16.9947 8.67183L16.0001 9.6664L15.0053 8.67183C13.7122 7.40856 11.6435 7.42048 10.365 8.69891C9.08688 9.97707 9.07469 12.0459 10.3382 13.3392L15.6079 18.6089C15.8244 18.8253 16.1757 18.8253 16.3921 18.6089L21.6618 13.3392C22.9253 12.0459 22.9131 9.97707 21.635 8.69891C20.3566 7.42048 18.2878 7.40856 16.9947 8.67183ZM20.8777 12.5548L16.0001 17.4323L11.1223 12.5548C10.2773 11.6973 10.2822 10.3186 11.1334 9.46732C11.9847 8.61576 13.3637 8.61088 14.2212 9.45622L15.6079 10.843C15.8244 11.0594 16.1757 11.0594 16.3921 10.843L17.7788 9.45622C18.6364 8.61088 20.0153 8.61576 20.8666 9.46732C21.7179 10.3186 21.7227 11.6973 20.8777 12.5548Z" fill="#9B39FC" fill-opacity="0.5"/>
<path d="M9.89844 22.0996H11.0079V23.209H9.89844V22.0996Z" fill="#9B39FC" fill-opacity="0.5"/>
<path d="M20.9924 22.0996H22.1019V23.209H20.9924V22.0996Z" fill="#9B39FC" fill-opacity="0.5"/>
<path d="M17.7195 22.4062L17.1096 23.6326L15.3899 20.1874C15.2856 20.0127 15.0968 19.9054 14.8934 19.9054C14.6898 19.9054 14.5012 20.0127 14.397 20.1874L13.4384 22.0996H12.1172V23.209H13.7813C13.9915 23.209 14.1835 23.0904 14.2775 22.9021L14.8907 21.6757L16.6101 25.1209C16.7041 25.3092 16.8964 25.4284 17.1066 25.4284C17.317 25.4284 17.5093 25.3092 17.6031 25.1209L18.5616 23.209H19.8831V22.0996H18.219C18.0077 22.0985 17.8141 22.2174 17.7195 22.4062Z" fill="#9B39FC" fill-opacity="0.5"/>
<path d="M30.4225 15.9979C30.4225 8.03259 23.9653 1.57544 16 1.57544C8.03451 1.57544 1.57764 8.03259 1.57764 15.9979C1.57764 23.9631 8.03451 30.4203 16 30.4203C23.9615 30.4113 30.4135 23.9593 30.4225 15.9979ZM16 29.3108C8.64746 29.3108 2.68705 23.3504 2.68705 15.9979C2.68705 8.64526 8.64746 2.68486 16 2.68486C23.3524 2.68486 29.313 8.64526 29.313 15.9979C29.3044 23.3469 23.3488 29.3022 16 29.3108Z" fill="#9B39FC" fill-opacity="0.5"/>
</g>
<defs>
<clipPath id="clip0">
<rect width="32" height="32" fill="white"/>
</clipPath>
</defs>
</svg>
